<svg xmlns="http://www.w3.org/2000/svg" width="147" height="50" viewBox="0 0 147 50"><path d="M12.195 5.776h7.227V36.94h3.408v.61h-7.145v-3.836h-.082c-.123.347-.287.776-.533 1.286-.247.51-.575.98-1.048 1.45-.45.468-1.026.877-1.724 1.203-.698.347-1.54.51-2.546.51-1.293 0-2.525-.285-3.695-.836-1.17-.55-2.197-1.307-3.08-2.245-.883-.94-1.58-2.02-2.115-3.245-.513-1.225-.78-2.51-.78-3.857 0-1.327.246-2.592.76-3.796.492-1.204 1.19-2.245 2.032-3.143.863-.897 1.848-1.61 2.977-2.162 1.13-.55 2.32-.817 3.594-.817 1.622 0 2.936.39 3.942 1.185 1.006.796 1.704 1.755 2.135 2.918h.083V6.388h-3.408v-.612zM4.537 27.45c0 1.53.04 2.917.123 4.162.083 1.245.308 2.306.657 3.204.35.878.883 1.55 1.602 2.02.717.47 1.662.715 2.873.715 1.232 0 2.238-.264 2.998-.795.76-.53 1.335-1.204 1.746-2.04.41-.837.698-1.776.842-2.797.143-1.02.225-2.02.225-3 0-1.142-.02-2.142-.06-2.98-.042-.836-.124-1.57-.248-2.224-.123-.653-.287-1.204-.492-1.673-.206-.47-.452-.918-.76-1.326-.452-.592-1.027-1.08-1.725-1.45-.718-.386-1.62-.57-2.71-.57-1.026 0-1.888.204-2.545.612-.657.408-1.19 1-1.56 1.755-.37.756-.637 1.675-.78 2.756-.124 1.082-.186 2.286-.186 3.633zm18.97 9.49h3.41V19.264h-3.41v-.612h7.145v4.45h.082c.124-.45.308-.94.575-1.49.266-.552.636-1.103 1.108-1.613.472-.51 1.047-.94 1.704-1.306.657-.347 1.478-.53 2.423-.53.677 0 1.273.1 1.765.326.493.224.924.51 1.232.837.33.346.555.734.72 1.163.142.45.225.877.225 1.326 0 .98-.226 1.613-.657 1.94-.452.326-.965.49-1.56.49-1.294 0-1.95-.41-1.95-1.226 0-.265.02-.47.08-.632.063-.164.124-.327.206-.49.082-.163.144-.347.206-.55.06-.205.082-.49.082-.88 0-.937-.514-1.407-1.56-1.407-.473 0-.986.185-1.5.532-.533.347-1.026.857-1.478 1.55-.45.674-.84 1.49-1.15 2.45-.307.96-.472 2.04-.472 3.286v10.06h3.86v.613H23.508v-.61zM45.066 26.61c0 .286 0 .592-.02.898-.02.306-.02.694-.02 1.163 0 .98.06 1.98.184 3.04.122 1.063.368 2.022.78 2.858.39.86.984 1.552 1.764 2.124.78.55 1.828.837 3.12.837 1.295 0 2.383-.183 3.224-.57.842-.39 1.5-.838 1.992-1.39.493-.55.842-1.1 1.088-1.652.246-.55.41-1.02.534-1.367l.657.123c-.083.327-.268.796-.514 1.388-.247.613-.657 1.205-1.19 1.818-.556.612-1.295 1.122-2.22 1.59-.922.45-2.134.675-3.612.675-1.478 0-2.854-.245-4.106-.714-1.252-.47-2.34-1.144-3.264-2.022-.924-.877-1.622-1.94-2.136-3.143-.513-1.224-.76-2.57-.76-4.08 0-1.287.268-2.552.78-3.777.514-1.224 1.233-2.306 2.136-3.245.903-.94 1.95-1.694 3.162-2.265 1.21-.57 2.505-.857 3.9-.857.822 0 1.725.144 2.67.45.944.286 1.827.775 2.648 1.428.82.653 1.5 1.53 2.033 2.633.554 1.083.82 2.45.82 4.062H45.066zM54.2 26c.063-.408.083-.796.083-1.143v-1.102c0-1-.102-1.816-.287-2.47-.185-.652-.452-1.163-.8-1.55-.35-.388-.76-.653-1.233-.817-.492-.163-1.006-.245-1.58-.245-1.007 0-1.828.205-2.485.592-.657.388-1.17.94-1.56 1.613-.39.673-.678 1.45-.862 2.326-.185.878-.308 1.816-.37 2.776H54.2V26zm7.27 5.388h.492c.205.714.472 1.408.8 2.143.33.715.76 1.388 1.314 1.98.555.612 1.212 1.102 2.012 1.47.8.387 1.766.57 2.875.57.944 0 1.786-.285 2.525-.856.74-.572 1.11-1.51 1.11-2.796 0-1.122-.29-1.898-.864-2.367-.575-.448-1.252-.816-2.012-1.08l-3.45-1.185c-.45-.143-.923-.326-1.436-.55-.513-.225-1.006-.53-1.437-.92-.453-.387-.802-.897-1.09-1.53-.287-.612-.43-1.408-.43-2.387 0-.817.164-1.592.492-2.286.33-.714.76-1.327 1.335-1.857.554-.53 1.232-.94 2.012-1.225.78-.286 1.64-.45 2.545-.45.657 0 1.17.062 1.58.164.39.103.74.205 1.048.307.287.103.554.205.8.307.247.102.514.163.842.163.33 0 .554-.122.72-.347h.49v5.02h-.49c-.207-.653-.453-1.265-.72-1.877-.267-.592-.575-1.143-.944-1.612-.37-.47-.82-.837-1.375-1.102-.554-.266-1.19-.388-1.93-.388-1.416 0-2.525.306-3.305.94-.78.63-1.17 1.468-1.17 2.53 0 .938.328 1.652 1.006 2.142.656.49 1.642.94 2.956 1.347l3.244 1.06c1.396.47 2.525 1.124 3.408 1.94.883.816 1.334 1.918 1.334 3.265 0 .796-.164 1.572-.472 2.327-.308.755-.76 1.428-1.375 2-.615.57-1.354 1.04-2.217 1.388-.862.347-1.868.53-2.997.53-.657 0-1.253-.06-1.786-.204-.555-.123-1.047-.266-1.5-.43-.45-.142-.882-.285-1.272-.428-.39-.122-.74-.204-1.068-.204-.328 0-.554.06-.718.204-.144.122-.267.265-.35.43h-.492v-6.144h-.04zm17.122 0h.492c.206.714.473 1.408.8 2.143.33.715.76 1.388 1.315 1.98.553.612 1.21 1.102 2.01 1.47.802.387 1.767.57 2.875.57.945 0 1.787-.285 2.526-.856.74-.572 1.11-1.51 1.11-2.796 0-1.122-.288-1.898-.863-2.367-.575-.448-1.252-.816-2.012-1.08l-3.45-1.185c-.45-.143-.923-.326-1.436-.55-.515-.225-1.007-.53-1.438-.92-.452-.387-.8-.897-1.09-1.53-.286-.612-.43-1.408-.43-2.387 0-.817.164-1.592.493-2.286.328-.714.76-1.327 1.334-1.857.554-.53 1.23-.94 2.01-1.225.782-.286 1.644-.45 2.547-.45.657 0 1.17.062 1.58.164.39.103.74.205 1.048.307.288.103.555.205.8.307.247.102.514.163.843.163.328 0 .554-.122.718-.347h.493v5.02h-.535c-.205-.653-.45-1.265-.718-1.877-.267-.592-.575-1.143-.945-1.612-.37-.47-.82-.837-1.375-1.102-.555-.266-1.19-.388-1.93-.388-1.417 0-2.526.306-3.306.94-.78.63-1.17 1.468-1.17 2.53 0 .938.33 1.652 1.007 2.142.657.49 1.643.94 2.956 1.347l3.244 1.06c1.396.47 2.526 1.124 3.408 1.94.883.816 1.335 1.918 1.335 3.265 0 .796-.164 1.572-.472 2.327-.308.755-.76 1.428-1.376 2-.616.57-1.355 1.04-2.217 1.388-.862.347-1.868.53-2.998.53-.657 0-1.252-.06-1.786-.204-.553-.123-1.046-.266-1.498-.43-.45-.142-.882-.285-1.272-.428-.39-.122-.74-.204-1.068-.204-.33 0-.554.06-.72.204-.142.122-.266.265-.348.43h-.492v-6.144zM94.462 36.94h3.408V19.264h-3.408v-.612h7.227V36.94h3.427v.61H94.482v-.61M105.815 49.286h3.408v-30.02h-3.408v-.613h7.145v3.694h.082c.452-1.225 1.17-2.245 2.197-3.06 1.026-.818 2.34-1.205 3.96-1.205 1.274 0 2.465.265 3.594.816 1.13.55 2.115 1.265 2.977 2.163.864.9 1.54 1.94 2.034 3.144.493 1.204.76 2.47.76 3.796 0 1.347-.267 2.633-.78 3.857-.514 1.225-1.212 2.306-2.115 3.245-.884.94-1.91 1.694-3.08 2.245-1.17.55-2.403.837-3.697.837-1.006 0-1.847-.164-2.545-.51-.698-.347-1.273-.735-1.704-1.184-.452-.45-.78-.92-1.027-1.408-.246-.49-.39-.878-.493-1.164h-.082v15.388h3.408v.612h-10.635v-.632zM124.13 27.45c0-1.348-.083-2.572-.227-3.634-.144-1.08-.41-2-.78-2.755-.37-.754-.883-1.346-1.56-1.754-.658-.408-1.52-.612-2.546-.612-1.09 0-1.992.184-2.71.57-.72.39-1.294.858-1.725 1.45-.33.408-.575.857-.78 1.327-.185.47-.35 1.02-.472 1.674-.124.653-.206 1.388-.247 2.225-.04.836-.06 1.836-.06 2.978 0 .98.08 1.96.224 3 .144 1.02.432 1.96.842 2.796.41.837 1.005 1.53 1.744 2.04.76.532 1.745.797 2.998.797 1.21 0 2.176-.244 2.874-.713.72-.47 1.232-1.143 1.602-2.02.35-.878.574-1.94.657-3.205.123-1.245.164-2.632.164-4.163zM130.35 36.94h3.408V19.264h-3.408v-.612h7.226V36.94h3.408v.61H130.35v-.61M91.772 6.53C92.8 2.144 97.192-.59 101.627.41c4.414 1.02 7.165 5.388 6.16 9.796-1.027 4.388-5.42 7.123-9.855 6.123-4.415-1.02-7.166-5.388-6.16-9.796zm6.734-2.224c-.82-.184-1.663.327-1.847 1.143-.186.815.327 1.652 1.148 1.836.822.183 1.663-.327 1.848-1.143.205-.816-.328-1.653-1.15-1.837zM97.54 8.49c-.82-.184-1.662.326-1.846 1.143-.185.816.328 1.653 1.15 1.836.82.183 1.662-.327 1.847-1.143.186-.817-.327-1.633-1.15-1.837zm5.175-3.225c-.82-.183-1.663.327-1.848 1.143-.184.816.33 1.653 1.15 1.837.82.184 1.663-.327 1.848-1.143.205-.816-.308-1.633-1.15-1.837zm-.965 4.204c-.82-.184-1.663.326-1.847 1.142-.185.817.328 1.653 1.15 1.837.82.183 1.662-.328 1.847-1.144.185-.837-.328-1.653-1.15-1.837zm28.723.265c-.72-4.45 2.34-8.633 6.816-9.347 4.475-.715 8.683 2.326 9.402 6.775.72 4.45-2.34 8.633-6.816 9.347-4.476.714-8.685-2.326-9.403-6.775zm5.4-4.572c-.842.123-1.417.92-1.274 1.755.123.837.923 1.41 1.765 1.266.842-.123 1.417-.92 1.273-1.755-.144-.838-.924-1.39-1.766-1.267zm.677 4.245c-.842.123-1.417.92-1.273 1.755.123.837.924 1.408 1.766 1.266.84-.124 1.416-.92 1.273-1.757-.144-.836-.924-1.387-1.766-1.265zm3.593-4.918c-.842.122-1.417.918-1.273 1.755.123.837.924 1.408 1.765 1.265.842-.122 1.417-.918 1.273-1.755-.143-.816-.924-1.388-1.765-1.265zm.677 4.245c-.842.122-1.416.918-1.273 1.755.124.837.924 1.408 1.766 1.265.842-.122 1.417-.918 1.273-1.755-.144-.816-.924-1.388-1.766-1.265z"></path></svg>
