<svg id="Layer_1" data-name="Layer 1" xmlns="http://www.w3.org/2000/svg" viewBox="0 0 1024 1024"><title>Artboard 1</title><rect x="-3" y="-9" width="1033" height="1038" style="fill:#192142"/><g id="logo"><path d="M307.4,514.11q0,47.45-27.11,74.15T204.15,615q-45.45,0-69-20.93t-23.52-57.21a124,124,0,0,1,2.39-23.52l53.82-9.57a157.42,157.42,0,0,0-1.59,22.32q0,22.72,9.57,33.29t29.9,10.56q25.51,0,36.08-15.35t10.56-48V347.87h55Z" style="fill:#fff"/><path d="M519.11,435.18Q546,462.68,546,511.32t-26.91,76.14Q492.2,615,444,615t-75.15-27.51Q341.91,560,341.91,511.32t26.91-76.14q26.91-27.51,75.15-27.51T519.11,435.18Zm-110.43,28.9q-12.16,15.75-12.16,47.24t12.16,47.24q12.16,15.75,35.28,15.75t35.28-15.75q12.16-15.74,12.16-47.24t-12.16-47.24Q467.08,448.34,444,448.33T408.68,464.08Z" style="fill:#fff"/><path d="M756,587.86q17.73,14.35,17.74,41.06,0,31.89-29.5,49.83t-77.74,17.94q-49.84,0-73.95-13.16t-24.12-35.88a33.56,33.56,0,0,1,9.17-23.52q9.17-10,27.11-14.35-13.56-5.58-21.53-15.75t-8-24.12q0-14.35,8.37-24.72t23.12-15.55q-15.15-8.76-23.12-22.52t-8-31.69q0-31.49,24.52-49.63t66.77-18.14a150.7,150.7,0,0,1,40.26,5.18q5.18-23.52,20.13-36.88t40.46-11.76l7.18,39.07a65.23,65.23,0,0,0-8.37-.4q-14.75,0-24.52,5.18T728.3,422a61.6,61.6,0,0,1,22.52,22.32q7.77,13.56,7.77,31.1,0,31.09-24.52,49.23t-67.17,18.14A167.43,167.43,0,0,1,631,539.23q-15.55,4-15.55,17.94,0,8,6,12.16t16.74,4.19h67.37Q738.26,573.51,756,587.86Zm-42.06,64.38q15.15-7,15.15-17.74a13.71,13.71,0,0,0-7-12.56q-7-4.19-22.92-4.19H645q-33.09,0-33.09,17.94,0,11.15,14.75,17.34t44.25,6.18Q698.79,659.22,713.95,652.24ZM640.8,451.12Q630.63,460.3,630.63,475q0,15.15,10.17,24.32t26.11,9.17q16.34,0,26.51-9.17T703.58,475q0-14.74-10.17-23.92T666.91,442Q651,442,640.8,451.12Z" style="fill:#fff"/><path d="M897.83,317.11A49.29,49.29,0,0,1,917.89,337q7.1,12.88,7.11,29.93t-7.11,29.93a49.27,49.27,0,0,1-20.06,19.9q-13,7-30.18,7-17.39,0-30.34-7a49.25,49.25,0,0,1-20.06-19.9q-7.11-12.87-7.11-29.93T817.25,337a49.27,49.27,0,0,1,20.06-19.9q13-7,30.34-7Q884.87,310.09,897.83,317.11Z" style="fill:#ff6876"/></g></svg>