<?xml version="1.0" encoding="utf-8"?>
<!-- Generator: Adobe Illustrator 21.1.0, SVG Export Plug-In . SVG Version: 6.00 Build 0)  -->
<svg version="1.1" id="Layer_1" xmlns="http://www.w3.org/2000/svg" xmlns:xlink="http://www.w3.org/1999/xlink" x="0px" y="0px"
	 viewBox="0 0 1185.3 552.2" style="enable-background:new 0 0 1185.3 552.2;" xml:space="preserve">
<style type="text/css">
	.st0{fill:#042559;}
</style>
<g id="Layer_1_1_">
	<title>logo</title>
	<g>
		<path class="st0" d="M535.7,137.8c-22.3-11.4-56.5-17.1-101.7-17.1h-74.2v317h75.3c40.6,0,68.5-2.5,85.3-7.7s32.6-14.7,46.9-28.3
			c14.3-13.5,25.7-30.7,33.7-51.1c8.1-20.3,12.1-42.9,12.1-67.1c0-34-7.3-64.1-21.7-89.7C576.9,168.1,558.2,149.3,535.7,137.8z
			 M544,282.1c0,20.2-3.7,37.5-10.9,51.1c-7.1,13.5-16.3,23.2-27.4,28.8c-11.3,5.7-30.1,8.6-55.8,8.6h-22.1V187h14.8
			c34.8,0,60.2,7.7,75.6,22.8C535.2,226.7,544,251.1,544,282.1z"/>
		<polygon class="st0" points="661.6,437.7 839.2,437.7 839.2,370.3 729.6,370.3 729.6,308 839.2,308 839.2,241.8 729.6,241.8 
			729.6,187.9 839.2,187.9 839.2,120.7 661.6,120.7 		"/>
		<polygon class="st0" points="1108.9,120.7 1034.2,328.9 960.4,120.7 889.7,120.7 1001.9,437.7 1065.4,437.7 1179.6,120.7 		"/>
	</g>
</g>
<g id="Layer_3">
	<g>
		<polygon class="st0" points="125.1,218.4 125.1,219.2 125.1,335.5 125.1,335.8 226.2,277.4 		"/>
		<polygon class="st0" points="232.2,267.1 232.2,149.5 131,208 		"/>
		<polygon class="st0" points="113.1,335.8 113.1,335.5 113.1,219.2 113.1,218.3 11.2,277.1 		"/>
		<polygon class="st0" points="13.1,139.1 11.2,140.1 113.1,198.8 113.1,197.5 113.1,81.3 113.1,81.2 13,139 		"/>
		<polygon class="st0" points="125.1,356.4 125.1,357.2 125.1,473.5 125.1,473.8 226.2,415.4 		"/>
		<polygon class="st0" points="113.1,473.8 113.1,473.5 113.1,357.2 113.1,356.3 11.2,415.1 		"/>
		<polygon class="st0" points="5.8,286.8 5.8,404.4 107.1,345.9 		"/>
		<polygon class="st0" points="232.2,543.1 232.2,425.5 131,484 		"/>
		<polygon class="st0" points="225.1,139.8 225.8,139.4 125.1,81.2 125.1,81.4 125.1,197.5 125.1,198.8 226.2,140.4 		"/>
		<polygon class="st0" points="5.8,11.8 5.8,129.4 107.1,70.9 		"/>
	</g>
</g>
</svg>
