<?xml version="1.0" standalone="no"?><!DOCTYPE svg PUBLIC "-//W3C//DTD SVG 1.1//EN" "http://www.w3.org/Graphics/SVG/1.1/DTD/svg11.dtd"><svg width="100%" height="100%" viewBox="0 0 436 191" version="1.1" xmlns="http://www.w3.org/2000/svg" xmlns:xlink="http://www.w3.org/1999/xlink" xml:space="preserve" style="fill-rule:evenodd;clip-rule:evenodd;stroke-linejoin:round;stroke-miterlimit:1.41421;"><path d="M128.775,52.141l0,83.102l11.642,0c11.462,0 19.774,-1.314 24.939,-3.945c5.164,-2.628 9.388,-7.051 12.671,-13.268c3.282,-6.215 4.924,-13.864 4.924,-22.948c0,-13.985 -3.909,-24.833 -11.729,-32.541c-7.046,-6.933 -18.358,-10.4 -33.939,-10.4l-8.508,0ZM103.881,27.963l29.705,0c19.147,0 33.372,2.373 42.677,7.12c9.305,4.745 16.969,12.461 22.994,23.147c6.025,10.687 9.039,23.164 9.039,37.432c0,10.15 -1.686,19.478 -5.057,27.983c-3.37,8.508 -8.024,15.568 -13.957,21.179c-5.936,5.612 -12.363,9.492 -19.282,11.642c-6.92,2.148 -18.907,3.224 -35.966,3.224l-30.153,0l0,-131.727Z" style="fill:#042559;fill-rule:nonzero;"/><path d="M228.544,27.963l71.906,0l0,24.536l-47.014,0l0,23.82l47.014,0l0,24.088l-47.014,0l0,34.656l47.014,0l0,24.627l-71.906,0l0,-131.727Z" style="fill:#042559;fill-rule:nonzero;"/><path d="M317.588,27.963l25.778,0l33.144,93.579l33.624,-93.579l25.748,0l-47.463,131.727l-24.177,0l-46.654,-131.727Z" style="fill:#042559;fill-rule:nonzero;"/><path d="M2.296,45.902l36.549,-21.222l0.105,42.264l-36.654,-21.042Z" style="fill:#042559;fill-rule:nonzero;"/><path d="M46.428,169.411l36.55,-21.222l0.105,42.264l-36.655,-21.042Z" style="fill:#042559;fill-rule:nonzero;"/><path d="M2.296,92.683l36.549,-21.223l0.105,42.264l-36.654,-21.041Z" style="fill:#042559;fill-rule:nonzero;"/><path d="M46.003,69.644l36.55,-21.223l0.104,42.264l-36.654,-21.041Z" style="fill:#042559;fill-rule:nonzero;"/><path d="M2.721,144.692l36.549,-21.223l0.105,42.264l-36.654,-21.041Z" style="fill:#042559;fill-rule:nonzero;"/><path d="M42.902,24.68l0.104,42.264l36.55,-21.223l-36.654,-21.041Z" style="fill:#042559;fill-rule:nonzero;"/><path d="M2.296,97.736l0.105,42.264l36.549,-21.223l-36.654,-21.041Z" style="fill:#042559;fill-rule:nonzero;"/><path d="M42.902,71.46l0.104,42.264l36.55,-21.222l-36.654,-21.042Z" style="fill:#042559;fill-rule:nonzero;"/><path d="M43.327,124.528l0.104,42.264l36.55,-21.222l-36.654,-21.042Z" style="fill:#042559;fill-rule:nonzero;"/><path d="M0,0l0.105,42.264l36.549,-21.223l-36.654,-21.041Z" style="fill:#042559;fill-rule:nonzero;"/></svg>
