<?xml version="1.0" encoding="utf-8"?>
<!-- Generator: Adobe Illustrator 21.1.0, SVG Export Plug-In . SVG Version: 6.00 Build 0)  -->
<svg version="1.1"
	 id="Layer_2" inkscape:version="0.91 r13725" sodipodi:docname="react-native-logo.svg" xmlns:cc="http://creativecommons.org/ns#" xmlns:dc="http://purl.org/dc/elements/1.1/" xmlns:inkscape="http://www.inkscape.org/namespaces/inkscape" xmlns:rdf="http://www.w3.org/1999/02/22-rdf-syntax-ns#" xmlns:sodipodi="http://sodipodi.sourceforge.net/DTD/sodipodi-0.dtd" xmlns:svg="http://www.w3.org/2000/svg"
	 xmlns="http://www.w3.org/2000/svg" xmlns:xlink="http://www.w3.org/1999/xlink" x="0px" y="0px" viewBox="0 0 765.2 246.8"
	 style="enable-background:new 0 0 765.2 246.8;" xml:space="preserve">
<style type="text/css">
	.st0{fill:#222222;fill-opacity:0;}
	.st1{fill:#00D8FF;}
	.st2{fill:none;stroke:#00D8FF;stroke-width:10.6712;stroke-miterlimit:10;}
	.st3{font-family:'HelveticaNeue';}
	.st4{font-size:165px;}
</style>
<sodipodi:namedview  bordercolor="#666666" borderopacity="1" fit-margin-bottom="-10" fit-margin-left="0" fit-margin-right="0" fit-margin-top="-10" gridtolerance="10" guidetolerance="10" id="namedview4496" inkscape:current-layer="Layer_2" inkscape:cx="695.43767" inkscape:cy="201.80937" inkscape:pageopacity="0" inkscape:pageshadow="2" inkscape:snap-page="false" inkscape:window-height="821" inkscape:window-maximized="0" inkscape:window-width="1446" inkscape:window-x="0" inkscape:window-y="0" inkscape:zoom="0.24387097" objecttolerance="10" pagecolor="#ffffff" showgrid="false">
	</sodipodi:namedview>
<rect id="rect4486" y="-10" class="st0" width="266.8" height="266.8"/>
<circle id="circle4488" class="st1" cx="143.8" cy="123.2" r="22.3"/>
<path id="path4490" inkscape:connector-curvature="0" class="st2" d="M143.8,77.9c29.9,0,57.8,4.3,78.7,11.5
	c25.3,8.7,40.8,21.9,40.8,33.8c0,12.4-16.5,26.5-43.6,35.4c-20.5,6.8-47.5,10.3-76,10.3c-29.1,0-56.7-3.3-77.5-10.4
	c-26.3-9-42.1-23.2-42.1-35.4c0-11.8,14.8-24.9,39.8-33.6C85.1,82.3,113.6,77.9,143.8,77.9L143.8,77.9z"/>
<path id="path4492" inkscape:connector-curvature="0" class="st2" d="M104.4,100.7c15-25.9,32.6-47.9,49.3-62.5
	c20.2-17.5,39.4-24.4,49.7-18.5c10.8,6.2,14.7,27.5,8.9,55.5c-4.4,21.2-14.8,46.3-29,71c-14.6,25.2-31.2,47.5-47.7,61.9
	c-20.9,18.3-41.1,24.9-51.7,18.8c-10.3-5.9-14.2-25.3-9.3-51.2C78.8,153.8,89.2,126.9,104.4,100.7z"/>
<path id="path4494" inkscape:connector-curvature="0" class="st2" d="M104.4,146.3c-15-25.9-25.2-52.1-29.5-73.9
	c-5.1-26.2-1.5-46.3,8.8-52.3c10.8-6.2,31.1,1,52.5,20c16.2,14.4,32.8,35.9,47,60.5c14.6,25.2,25.5,50.8,29.8,72.3
	c5.4,27.2,1,48-9.5,54.1c-10.3,5.9-29-0.3-49-17.6C137.6,194.9,119.5,172.5,104.4,146.3L104.4,146.3z"/>
<text transform="matrix(1 0 0 1 317.2126 186.7127)" class="st3 st4">React </text>
</svg>
