<svg id="Layer_1" data-name="Layer 1" xmlns="http://www.w3.org/2000/svg" viewBox="0 0 342 72"><defs><style>.cls-1,.cls-2{isolation:isolate;font-size:47.6px;font-family:Reef-Bold, Reef;font-weight:700;}.cls-1,.cls-2,.cls-3{fill:#2a2926;}.cls-1{letter-spacing:0.27em;}.cls-2{letter-spacing:0.27em;}</style></defs><title>Artboard 1</title><text class="cls-1" transform="translate(-1.37 59.6)">EXPRESSO</text><text class="cls-2" transform="translate(218.34 59.6)"> </text><path class="cls-3" d="M327,16.7V7.1a2.3,2.3,0,1,1,4.6,0v9.5a2.09,2.09,0,0,1-2.3,2.4,2.06,2.06,0,0,1-2.3-2.3Zm-9.3,0V2.4A2.09,2.09,0,0,1,320,0c1.6,0,2.3.8,2.3,2.4V16.7a2.09,2.09,0,0,1-2.3,2.4,2.13,2.13,0,0,1-2.3-2.4Zm-9.3,0V7.1a2.09,2.09,0,0,1,2.3-2.4c1.6,0,2.3.8,2.3,2.4v9.5a2.09,2.09,0,0,1-2.3,2.4,2,2,0,0,1-2.3-2.3Zm27.9,11.91H303.7v14.3c0,4.2,1,7.6,3.1,10.3a10.06,10.06,0,0,0,8.6,4h9.3a10.06,10.06,0,0,0,8.6-4,16.81,16.81,0,0,0,3.1-10.3V28.61ZM320,66.6a54.55,54.55,0,0,0,21-3.89v4.9a61.44,61.44,0,0,1-42,0v-4.9a54.55,54.55,0,0,0,21,3.91Zm21-42.79v19a21,21,0,0,1-4.41,13.6,14.5,14.5,0,0,1-11.9,5.4h-9.3a14.5,14.5,0,0,1-11.9-5.4,21.14,21.14,0,0,1-4.39-13.6v-19Z"/></svg>