<?xml version="1.0" standalone="no"?><!DOCTYPE svg PUBLIC "-//W3C//DTD SVG 1.1//EN" "http://www.w3.org/Graphics/SVG/1.1/DTD/svg11.dtd"><svg width="100%" height="100%" viewBox="0 0 900 475" version="1.1" xmlns="http://www.w3.org/2000/svg" xmlns:xlink="http://www.w3.org/1999/xlink" xml:space="preserve" style="fill-rule:evenodd;clip-rule:evenodd;stroke-linejoin:round;stroke-miterlimit:1.41421;"><g id="Layer 1"><path d="M348.829,190.916l0,110.802l15.522,0c15.283,0 26.366,-1.752 33.252,-5.26c6.885,-3.504 12.517,-9.401 16.895,-17.69c4.376,-8.287 6.565,-18.486 6.565,-30.598c0,-18.646 -5.212,-33.11 -15.639,-43.388c-9.394,-9.243 -24.477,-13.866 -45.252,-13.866l-11.343,0ZM315.636,158.679l39.607,0c25.529,0 44.496,3.164 56.903,9.493c12.406,6.327 22.625,16.615 30.658,30.863c8.034,14.249 12.052,30.885 12.052,49.909c0,13.533 -2.248,25.97 -6.742,37.311c-4.494,11.344 -10.699,20.757 -18.609,28.238c-7.915,7.483 -16.484,12.656 -25.71,15.523c-9.226,2.864 -25.209,4.298 -47.955,4.298l-40.204,0l0,-175.635Z" style="fill:#042559;fill-rule:nonzero;"/><path d="M481.853,158.679l95.875,0l0,32.714l-62.685,0l0,31.76l62.685,0l0,32.118l-62.685,0l0,46.208l62.685,0l0,32.835l-95.875,0l0,-175.635Z" style="fill:#042559;fill-rule:nonzero;"/><path d="M600.579,158.679l34.371,0l44.192,124.771l44.832,-124.771l34.33,0l-63.283,175.635l-32.237,0l-62.205,-175.635Z" style="fill:#042559;fill-rule:nonzero;"/><path d="M145.816,149.535l66.019,-38.334l0.189,76.341l-66.208,-38.007Z" style="fill:#042559;fill-rule:nonzero;"/><path d="M225.532,372.628l66.019,-38.334l0.189,76.341l-66.208,-38.007Z" style="fill:#042559;fill-rule:nonzero;"/><path d="M145.816,234.035l66.019,-38.334l0.189,76.341l-66.208,-38.007Z" style="fill:#042559;fill-rule:nonzero;"/><path d="M224.764,192.419l66.019,-38.334l0.189,76.341l-66.208,-38.007Z" style="fill:#042559;fill-rule:nonzero;"/><path d="M146.583,327.977l66.019,-38.334l0.189,76.341l-66.208,-38.007Z" style="fill:#042559;fill-rule:nonzero;"/><path d="M219.161,111.201l0.189,76.341l66.019,-38.334l-66.208,-38.007Z" style="fill:#042559;fill-rule:nonzero;"/><path d="M145.816,243.161l0.189,76.341l66.019,-38.334l-66.208,-38.007Z" style="fill:#042559;fill-rule:nonzero;"/><path d="M219.161,195.7l0.189,76.341l66.019,-38.334l-66.208,-38.007Z" style="fill:#042559;fill-rule:nonzero;"/><path d="M219.929,291.557l0.189,76.341l66.019,-38.334l-66.208,-38.007Z" style="fill:#042559;fill-rule:nonzero;"/><path d="M141.669,66.622l0.189,76.341l66.019,-38.334l-66.208,-38.007Z" style="fill:#042559;fill-rule:nonzero;"/></g></svg>